<?xml version="1.0" ?><!DOCTYPE svg  PUBLIC '-//W3C//DTD SVG 1.1//EN'  'http://www.w3.org/Graphics/SVG/1.1/DTD/svg11.dtd'><svg enable-background="new 0 0 512 512" height="512px" id="After_Effects_1_" version="1.1" viewBox="0 0 512 512" width="512px" xml:space="preserve" xmlns="http://www.w3.org/2000/svg" xmlns:xlink="http://www.w3.org/1999/xlink"><g id="Frame_8_"><g><rect fill="#C88FFF" height="486.004" width="499.004" x="6.998" y="11.998"/></g></g><g id="Background_8_"><g><rect fill="#312963" height="407.969" width="421.987" x="45.008" y="51.016"/></g></g><g id="Shadow2_8_" opacity="0.302"><g><polygon points="388,216 305,232 207,152 163,157 93,358 227,459 467,459 467,279   "/></g></g><g id="Shadow_9_" opacity="0.302"><g><rect height="13.998" width="421.987" x="45.008" y="51.001"/></g></g><g id="Ae"><g><path d="M150.294,299.554l-17.719,58.35H93.777l65.987-205.904h47.963l66.903,205.904h-40.325l-18.635-58.35    H150.294z M209.255,271.143l-16.191-50.712c-3.971-12.525-7.332-26.578-10.387-38.493h-0.611    c-3.055,11.915-6.11,26.272-9.776,38.493l-15.886,50.712H209.255z" fill="#C88FFF"/><path d="M316.174,294.055c0.916,26.884,21.995,38.492,45.824,38.492c17.413,0,29.938-2.443,41.242-6.721    l5.499,25.967c-12.831,5.194-30.55,9.165-51.935,9.165c-48.269,0-76.68-29.633-76.68-75.151c0-41.242,25.051-80.041,72.708-80.041    c48.269,0,64.154,39.714,64.154,72.403c0,7.026-0.611,12.525-1.222,15.886H316.174z M381.55,267.782    c0.306-13.748-5.805-36.354-30.855-36.354c-23.218,0-32.993,21.08-34.521,36.354H381.55z" fill="#C88FFF"/></g></g></svg>