<?xml version="1.0" ?><!DOCTYPE svg  PUBLIC '-//W3C//DTD SVG 1.1//EN'  'http://www.w3.org/Graphics/SVG/1.1/DTD/svg11.dtd'><svg enable-background="new 0 0 512 512" height="512px" id="Illustrator_1_" version="1.1" viewBox="0 0 512 512" width="512px" xml:space="preserve" xmlns="http://www.w3.org/2000/svg" xmlns:xlink="http://www.w3.org/1999/xlink"><g id="Frame_1_"><g><rect fill="#FFAA2B" height="486.004" width="499.004" x="6.998" y="11.998"/></g></g><g id="Background_1_"><g><rect fill="#3B3323" height="407.969" width="421.987" x="45.008" y="51.016"/></g></g><g id="Shadow2_1_" opacity="0.302"><g><path d="M364,148c0.997,0.664-28,31-28,31l37.387,29.456L339,234l-86-83l-41,10l-26,83l-47,113l144,102h184V231    C467,231,363.003,147.336,364,148z"/></g></g><g id="Shadow_2_" opacity="0.302"><g><rect height="13.998" width="421.987" x="45.008" y="51.001"/></g></g><g id="Ai"><g><path d="M196.007,298.553l-17.719,58.35h-38.798l65.987-205.904h47.963l66.904,205.904h-40.326l-18.635-58.35    H196.007z M254.968,270.142l-16.191-50.712c-3.971-12.525-7.332-26.578-10.387-38.493h-0.611    c-3.055,11.915-6.11,26.272-9.776,38.493l-15.886,50.712H254.968z" fill="#FFAA2B"/><path d="M375.329,166.578c0,11.303-8.248,20.163-21.385,20.163c-12.525,0-20.773-8.859-20.773-20.163    c0-11.609,8.554-20.468,21.079-20.468C367.081,146.11,375.023,154.969,375.329,166.578z M335.31,356.902V208.125h37.881v148.777    H335.31z" fill="#FFAA2B"/></g></g></svg>