<?xml version="1.0" ?><!DOCTYPE svg  PUBLIC '-//W3C//DTD SVG 1.1//EN'  'http://www.w3.org/Graphics/SVG/1.1/DTD/svg11.dtd'><svg enable-background="new 0 0 512 512" height="512px" id="Indesign_1_" version="1.1" viewBox="0 0 512 512" width="512px" xml:space="preserve" xmlns="http://www.w3.org/2000/svg" xmlns:xlink="http://www.w3.org/1999/xlink"><g id="Frame_2_"><g><rect fill="#EB43A3" height="486.004" width="499.004" x="6.998" y="11.998"/></g></g><g id="Background_2_"><g><rect fill="#412534" height="407.969" width="421.987" x="45.008" y="51.016"/></g></g><g id="Shadow2_2_" opacity="0.302"><g><polygon points="367,140 347,230 199,151 186,244 161,357 306,459 467,459 467,213   "/></g></g><g id="Shadow_3_" opacity="0.302"><g><rect height="13.998" width="421.987" x="45.008" y="51.001"/></g></g><g id="Id"><g><path d="M199.52,150.998v205.904h-37.576V150.998H199.52z" fill="#EB43A3"/><path d="M366.013,140v175.05c0,15.274,0.611,31.771,1.223,41.853h-33.604l-1.527-23.523h-0.611    c-8.859,16.497-26.884,26.884-48.574,26.884c-35.438,0-63.543-30.244-63.543-76.068c-0.306-49.796,30.855-79.429,66.599-79.429    c20.468,0,35.132,8.554,41.853,19.552h0.611V140H366.013z M328.438,270.142c0-3.055-0.306-6.721-0.917-9.776    c-3.36-14.664-15.274-26.578-32.383-26.578c-24.134,0-37.575,21.384-37.575,49.185c0,27.188,13.441,47.046,37.271,47.046    c15.274,0,28.716-10.387,32.382-26.578c0.917-3.36,1.223-7.026,1.223-10.998V270.142z" fill="#EB43A3"/></g></g></svg>