<?xml version="1.0" ?><!DOCTYPE svg  PUBLIC '-//W3C//DTD SVG 1.1//EN'  'http://www.w3.org/Graphics/SVG/1.1/DTD/svg11.dtd'><svg enable-background="new 0 0 512 512" height="512px" id="Photoshop_1_" version="1.1" viewBox="0 0 512 512" width="512px" xml:space="preserve" xmlns="http://www.w3.org/2000/svg" xmlns:xlink="http://www.w3.org/1999/xlink"><g id="Frame"><g><rect fill="#7EBCF9" height="486.004" width="499.004" x="6.998" y="11.998"/></g></g><g id="Background"><g><rect fill="#30267E" height="407.969" width="421.987" x="45.008" y="51.016"/></g></g><g id="Shadow2" opacity="0.302"><g><polygon points="376,214 316,231 239,159 153,168 150,246 130,357 292,459 467,459 467,281   "/></g></g><g id="Shadow_1_" opacity="0.302"><g><rect height="13.998" width="421.987" x="45.008" y="51.001"/></g></g><g id="Ps"><g><path d="M129.935,153.748c13.441-2.444,32.077-4.277,57.433-4.277c27.495,0,47.657,5.805,60.794,16.802    c12.219,10.082,20.163,26.273,20.163,45.519c0,19.552-6.11,35.743-17.719,46.741c-14.969,14.97-38.493,21.996-65.071,21.996    c-7.026,0-13.442-0.306-18.33-1.222v77.596h-37.271V153.748z M167.205,249.673c4.582,1.222,10.692,1.527,18.33,1.527    c28.105,0,45.213-13.748,45.213-37.881c0-22.913-15.886-35.132-41.853-35.132c-10.387,0-17.719,0.917-21.69,1.833V249.673z" fill="#7EBCF9"/><path d="M285.124,322.381c8.554,5.194,24.745,10.692,38.187,10.692c16.497,0,23.829-6.721,23.829-16.496    c0-10.082-6.11-15.275-24.439-21.69c-29.022-10.081-41.242-25.968-40.937-43.38c0-26.273,21.689-46.741,56.211-46.741    c16.497,0,30.855,4.277,39.409,8.859l-7.332,26.578c-6.415-3.666-18.33-8.554-31.466-8.554c-13.442,0-20.774,6.416-20.774,15.58    c0,9.47,7.026,14.053,25.968,20.774c26.884,9.776,39.409,23.523,39.714,45.519c0,26.884-21.079,46.436-60.488,46.436    c-18.023,0-34.215-4.276-45.213-10.387L285.124,322.381z" fill="#7EBCF9"/></g></g></svg>