<svg width="1920" height="941" xmlns="http://www.w3.org/2000/svg"><g><path d="M-20,-98L-74,73L24,38Z" fill="#ea332a" stroke="#ea332a"/><path d="M-20,-98L24,38L109,-76Z" fill="#ee2c26" stroke="#ee2c26"/><path d="M-20,-98L109,-76L546,-110Z" fill="#f8332a" stroke="#f8332a"/><path d="M109,-76L24,38L194,50Z" fill="#f24432" stroke="#f24432"/><path d="M109,-76L194,50L283,-34Z" fill="#f74833" stroke="#f74833"/><path d="M109,-76L283,-34L416,-60Z" fill="#fa4633" stroke="#fa4633"/><path d="M109,-76L416,-60L546,-110Z" fill="#fc4a34" stroke="#fc4a34"/><path d="M283,-34L194,50L378,35Z" fill="#fb5f3e" stroke="#fb5f3e"/><path d="M283,-34L378,35L416,-60Z" fill="#fc5d3d" stroke="#fc5d3d"/><path d="M416,-60L378,35L480,21Z" fill="#fd6c44" stroke="#fd6c44"/><path d="M416,-60L480,21L546,-110Z" fill="#fe6441" stroke="#fe6441"/><path d="M546,-110L480,21L649,-33Z" fill="#fe6f49" stroke="#fe6f49"/><path d="M546,-110L649,-33L805,-114Z" fill="#ff6d4c" stroke="#ff6d4c"/><path d="M546,-110L805,-114L1707,-130Z" fill="#e67548" stroke="#e67548"/><path d="M649,-33L480,21L703,55Z" fill="#ff8655" stroke="#ff8655"/><path d="M649,-33L703,55L805,-114Z" fill="#ff8358" stroke="#ff8358"/><path d="M805,-114L703,55L861,80Z" fill="#f9915e" stroke="#f9915e"/><path d="M805,-114L861,80L985,46Z" fill="#f2935d" stroke="#f2935d"/><path d="M805,-114L985,46L1013,-86Z" fill="#ee8355" stroke="#ee8355"/><path d="M805,-114L1013,-86L1232,-97Z" fill="#e6754a" stroke="#e6754a"/><path d="M805,-114L1232,-97L1411,-106Z" fill="#d86f40" stroke="#d86f40"/><path d="M805,-114L1411,-106L1707,-130Z" fill="#c4663a" stroke="#c4663a"/><path d="M1013,-86L985,46L1088,-52Z" fill="#e58854" stroke="#e58854"/><path d="M1013,-86L1088,-52L1232,-97Z" fill="#dc7547" stroke="#dc7547"/><path d="M1088,-52L985,46L1173,103Z" fill="#df9959" stroke="#df9959"/><path d="M1088,-52L1173,103L1282,21Z" fill="#d59251" stroke="#d59251"/><path d="M1088,-52L1282,21L1232,-97Z" fill="#d37c46" stroke="#d37c46"/><path d="M1232,-97L1282,21L1411,-106Z" fill="#c47042" stroke="#c47042"/><path d="M1411,-106L1282,21L1384,111Z" fill="#be824b" stroke="#be824b"/><path d="M1411,-106L1384,111L1527,-39Z" fill="#b37847" stroke="#b37847"/><path d="M1411,-106L1527,-39L1707,-130Z" fill="#a25637" stroke="#a25637"/><path d="M1527,-39L1384,111L1561,65Z" fill="#ab854d" stroke="#ab854d"/><path d="M1527,-39L1561,65L1693,58Z" fill="#9a7847" stroke="#9a7847"/><path d="M1527,-39L1693,58L1707,-130Z" fill="#93603b" stroke="#93603b"/><path d="M1707,-130L1693,58L1826,-50Z" fill="#835737" stroke="#835737"/><path d="M1707,-130L1826,-50L2071,-90Z" fill="#803e2b" stroke="#803e2b"/><path d="M1826,-50L1693,58L1816,45Z" fill="#80673e" stroke="#80673e"/><path d="M1826,-50L1816,45L2037,53Z" fill="#805d39" stroke="#805d39"/><path d="M1826,-50L2037,53L2071,-90Z" fill="#80492f" stroke="#80492f"/><path d="M2071,-90L2037,53L2043,275Z" fill="#80653c" stroke="#80653c"/><path d="M2071,-90L2043,275L2034,1075Z" fill="#80af6d" stroke="#80af6d"/><path d="M-74,73L-103,196L24,38Z" fill="#e84e37" stroke="#e84e37"/><path d="M24,38L-103,196L52,274Z" fill="#eb6943" stroke="#eb6943"/><path d="M24,38L52,274L194,50Z" fill="#f16642" stroke="#f16642"/><path d="M194,50L52,274L188,263Z" fill="#f48550" stroke="#f48550"/><path d="M194,50L188,263L379,233Z" fill="#fa8f54" stroke="#fa8f54"/><path d="M194,50L379,233L378,35Z" fill="#fb7f4d" stroke="#fb7f4d"/><path d="M378,35L379,233L480,21Z" fill="#fd8952" stroke="#fd8952"/><path d="M480,21L379,233L510,234Z" fill="#fea45e" stroke="#fea45e"/><path d="M480,21L510,234L647,190Z" fill="#fea963" stroke="#fea963"/><path d="M480,21L647,190L703,55Z" fill="#ff9d60" stroke="#ff9d60"/><path d="M703,55L647,190L767,195Z" fill="#ffb971" stroke="#ffb971"/><path d="M703,55L767,195L861,80Z" fill="#fab16d" stroke="#fab16d"/><path d="M861,80L767,195L1027,249Z" fill="#f2c976" stroke="#f2c976"/><path d="M861,80L1027,249L985,46Z" fill="#ecbb6f" stroke="#ecbb6f"/><path d="M985,46L1027,249L1114,206Z" fill="#e4c570" stroke="#e4c570"/><path d="M985,46L1114,206L1173,103Z" fill="#deb365" stroke="#deb365"/><path d="M1173,103L1114,206L1245,259Z" fill="#d5c669" stroke="#d5c669"/><path d="M1173,103L1245,259L1384,111Z" fill="#cab762" stroke="#cab762"/><path d="M1173,103L1384,111L1282,21Z" fill="#c89d57" stroke="#c89d57"/><path d="M1384,111L1245,259L1429,250Z" fill="#bec268" stroke="#bec268"/><path d="M1384,111L1429,250L1531,174Z" fill="#b1b362" stroke="#b1b362"/><path d="M1384,111L1531,174L1561,65Z" fill="#ab9b58" stroke="#ab9b58"/><path d="M1561,65L1531,174L1693,58Z" fill="#9a8e51" stroke="#9a8e51"/><path d="M1693,58L1531,174L1694,247Z" fill="#939e58" stroke="#939e58"/><path d="M1693,58L1694,247L1816,45Z" fill="#84894e" stroke="#84894e"/><path d="M1816,45L1694,247L1901,211Z" fill="#809453" stroke="#809453"/><path d="M1816,45L1901,211L2037,53Z" fill="#807645" stroke="#807645"/><path d="M2037,53L1901,211L2043,275Z" fill="#808a4d" stroke="#808a4d"/><path d="M-103,196L-134,855L-107,565Z" fill="#d48955" stroke="#d48955"/><path d="M-103,196L-107,565L-80,394Z" fill="#e58b61" stroke="#e58b61"/><path d="M-103,196L-80,394L52,274Z" fill="#e98556" stroke="#e98556"/><path d="M52,274L-80,394L87,367Z" fill="#ec9966" stroke="#ec9966"/><path d="M52,274L87,367L188,263Z" fill="#f29b62" stroke="#f29b62"/><path d="M188,263L87,367L216,359Z" fill="#f5a86b" stroke="#f5a86b"/><path d="M188,263L216,359L348,363Z" fill="#fab370" stroke="#fab370"/><path d="M188,263L348,363L379,233Z" fill="#fbb26a" stroke="#fbb26a"/><path d="M379,233L348,363L494,330Z" fill="#fdc476" stroke="#fdc476"/><path d="M379,233L494,330L510,234Z" fill="#fec270" stroke="#fec270"/><path d="M510,234L494,330L658,376Z" fill="#fed682" stroke="#fed682"/><path d="M510,234L658,376L647,190Z" fill="#ffd27c" stroke="#ffd27c"/><path d="M647,190L658,376L767,195Z" fill="#ffd981" stroke="#ffd981"/><path d="M767,195L658,376L768,396Z" fill="#feea92" stroke="#feea92"/><path d="M767,195L768,396L1027,249Z" fill="#f4e589" stroke="#f4e589"/><path d="M1027,249L768,396L1030,332Z" fill="#eef193" stroke="#eef193"/><path d="M1027,249L1030,332L1114,206Z" fill="#e2e07f" stroke="#e2e07f"/><path d="M1114,206L1030,332L1159,412Z" fill="#dde987" stroke="#dde987"/><path d="M1114,206L1159,412L1245,259Z" fill="#d6e17d" stroke="#d6e17d"/><path d="M1245,259L1159,412L1250,354Z" fill="#d0e985" stroke="#d0e985"/><path d="M1245,259L1250,354L1429,250Z" fill="#c4d879" stroke="#c4d879"/><path d="M1429,250L1250,354L1456,390Z" fill="#bbdd81" stroke="#bbdd81"/><path d="M1429,250L1456,390L1608,341Z" fill="#aad47d" stroke="#aad47d"/><path d="M1429,250L1608,341L1531,174Z" fill="#a6c46c" stroke="#a6c46c"/><path d="M1531,174L1608,341L1694,247Z" fill="#98bd68" stroke="#98bd68"/><path d="M1694,247L1608,341L1750,407Z" fill="#8cc777" stroke="#8cc777"/><path d="M1694,247L1750,407L1925,323Z" fill="#80be71" stroke="#80be71"/><path d="M1694,247L1925,323L1901,211Z" fill="#80ac61" stroke="#80ac61"/><path d="M1901,211L1925,323L2043,275Z" fill="#80a55e" stroke="#80a55e"/><path d="M2043,275L1925,323L1976,336Z" fill="#80ac66" stroke="#80ac66"/><path d="M2043,275L1976,336L1982,579Z" fill="#80b36f" stroke="#80b36f"/><path d="M2043,275L1982,579L2026,977Z" fill="#5caf59" stroke="#5caf59"/><path d="M2043,275L2026,977L2034,1075Z" fill="#23944e" stroke="#23944e"/><path d="M-80,394L-107,565L106,534Z" fill="#e39461" stroke="#e39461"/><path d="M-80,394L106,534L87,367Z" fill="#ee9d69" stroke="#ee9d69"/><path d="M87,367L106,534L186,467Z" fill="#f3a86e" stroke="#f3a86e"/><path d="M87,367L186,467L216,359Z" fill="#f5ac70" stroke="#f5ac70"/><path d="M216,359L186,467L348,363Z" fill="#fab875" stroke="#fab875"/><path d="M348,363L186,467L349,536Z" fill="#fbbe78" stroke="#fbbe78"/><path d="M348,363L349,536L494,330Z" fill="#fdcc7f" stroke="#fdcc7f"/><path d="M494,330L349,536L540,568Z" fill="#fcd481" stroke="#fcd481"/><path d="M494,330L540,568L658,376Z" fill="#fee08b" stroke="#fee08b"/><path d="M658,376L540,568L705,567Z" fill="#f7e78c" stroke="#f7e78c"/><path d="M658,376L705,567L768,396Z" fill="#ffef98" stroke="#ffef98"/><path d="M768,396L705,567L884,492Z" fill="#f6f296" stroke="#f6f296"/><path d="M768,396L884,492L1030,332Z" fill="#f1f599" stroke="#f1f599"/><path d="M1030,332L884,492L957,506Z" fill="#ecf799" stroke="#ecf799"/><path d="M1030,332L957,506L1112,518Z" fill="#e4f494" stroke="#e4f494"/><path d="M1030,332L1112,518L1159,412Z" fill="#ddf18f" stroke="#ddf18f"/><path d="M1159,412L1112,518L1232,508Z" fill="#d4ee89" stroke="#d4ee89"/><path d="M1159,412L1232,508L1250,354Z" fill="#d1eb88" stroke="#d1eb88"/><path d="M1250,354L1232,508L1399,506Z" fill="#c6e787" stroke="#c6e787"/><path d="M1250,354L1399,506L1456,390Z" fill="#bce286" stroke="#bce286"/><path d="M1456,390L1399,506L1575,543Z" fill="#abdb82" stroke="#abdb82"/><path d="M1456,390L1575,543L1608,341Z" fill="#a2d681" stroke="#a2d681"/><path d="M1608,341L1575,543L1684,533Z" fill="#95d07d" stroke="#95d07d"/><path d="M1608,341L1684,533L1750,407Z" fill="#8dcc7b" stroke="#8dcc7b"/><path d="M1750,407L1684,533L1850,531Z" fill="#7bc575" stroke="#7bc575"/><path d="M1750,407L1850,531L1925,323Z" fill="#80bf75" stroke="#80bf75"/><path d="M1925,323L1850,531L1976,336Z" fill="#80b972" stroke="#80b972"/><path d="M1976,336L1850,531L1982,579Z" fill="#7db86f" stroke="#7db86f"/><path d="M-107,565L-134,855L-83,715Z" fill="#a07a48" stroke="#a07a48"/><path d="M-107,565L-83,715L44,633Z" fill="#bc8b4e" stroke="#bc8b4e"/><path d="M-107,565L44,633L106,534Z" fill="#d29a56" stroke="#d29a56"/><path d="M106,534L44,633L171,731Z" fill="#c7a057" stroke="#c7a057"/><path d="M106,534L171,731L349,536Z" fill="#d7b15e" stroke="#d7b15e"/><path d="M106,534L349,536L186,467Z" fill="#eeb36c" stroke="#eeb36c"/><path d="M349,536L171,731L374,645Z" fill="#ceb863" stroke="#ceb863"/><path d="M349,536L374,645L540,568Z" fill="#e2cf6d" stroke="#e2cf6d"/><path d="M540,568L374,645L494,694Z" fill="#d2cf6e" stroke="#d2cf6e"/><path d="M540,568L494,694L664,677Z" fill="#cfd875" stroke="#cfd875"/><path d="M540,568L664,677L705,567Z" fill="#dde57d" stroke="#dde57d"/><path d="M705,567L664,677L801,718Z" fill="#cce783" stroke="#cce783"/><path d="M705,567L801,718L884,492Z" fill="#dbf285" stroke="#dbf285"/><path d="M884,492L801,718L986,622Z" fill="#cef284" stroke="#cef284"/><path d="M884,492L986,622L957,506Z" fill="#ddf78d" stroke="#ddf78d"/><path d="M957,506L986,622L1112,518Z" fill="#d3f587" stroke="#d3f587"/><path d="M1112,518L986,622L1114,684Z" fill="#bdf07d" stroke="#bdf07d"/><path d="M1112,518L1114,684L1232,508Z" fill="#c0ee7b" stroke="#c0ee7b"/><path d="M1232,508L1114,684L1287,700Z" fill="#a7e673" stroke="#a7e673"/><path d="M1232,508L1287,700L1399,506Z" fill="#ace676" stroke="#ace676"/><path d="M1399,506L1287,700L1407,684Z" fill="#93dd70" stroke="#93dd70"/><path d="M1399,506L1407,684L1575,543Z" fill="#96dd72" stroke="#96dd72"/><path d="M1575,543L1407,684L1625,618Z" fill="#7ed36c" stroke="#7ed36c"/><path d="M1575,543L1625,618L1684,533Z" fill="#7ed06d" stroke="#7ed06d"/><path d="M1684,533L1625,618L1688,709Z" fill="#68c967" stroke="#68c967"/><path d="M1684,533L1688,709L1850,531Z" fill="#66c765" stroke="#66c765"/><path d="M1850,531L1688,709L1905,710Z" fill="#4fb960" stroke="#4fb960"/><path d="M1850,531L1905,710L1982,579Z" fill="#5db75e" stroke="#5db75e"/><path d="M1982,579L1905,710L1976,716Z" fill="#49ad5a" stroke="#49ad5a"/><path d="M1982,579L1976,716L2026,977Z" fill="#2a9b52" stroke="#2a9b52"/><path d="M-83,715L-134,855L92,767Z" fill="#8b7645" stroke="#8b7645"/><path d="M-83,715L92,767L44,633Z" fill="#a98b50" stroke="#a98b50"/><path d="M44,633L92,767L171,731Z" fill="#ad9554" stroke="#ad9554"/><path d="M171,731L92,767L201,812Z" fill="#9a9051" stroke="#9a9051"/><path d="M171,731L201,812L360,799Z" fill="#9b9a56" stroke="#9b9a56"/><path d="M171,731L360,799L374,645Z" fill="#b1ac5f" stroke="#b1ac5f"/><path d="M374,645L360,799L494,694Z" fill="#b7bd67" stroke="#b7bd67"/><path d="M494,694L360,799L511,871Z" fill="#9db562" stroke="#9db562"/><path d="M494,694L511,871L710,788Z" fill="#9fc36c" stroke="#9fc36c"/><path d="M494,694L710,788L664,677Z" fill="#b7d477" stroke="#b7d477"/><path d="M664,677L710,788L801,718Z" fill="#b3dd7f" stroke="#b3dd7f"/><path d="M801,718L710,788L765,851Z" fill="#9cd379" stroke="#9cd379"/><path d="M801,718L765,851L973,880Z" fill="#8ad076" stroke="#8ad076"/><path d="M801,718L973,880L986,622Z" fill="#a0e17d" stroke="#a0e17d"/><path d="M986,622L973,880L1089,815Z" fill="#8bd976" stroke="#8bd976"/><path d="M986,622L1089,815L1114,684Z" fill="#9ee47a" stroke="#9ee47a"/><path d="M1114,684L1089,815L1249,850Z" fill="#79d16c" stroke="#79d16c"/><path d="M1114,684L1249,850L1287,700Z" fill="#80d56c" stroke="#80d56c"/><path d="M1287,700L1249,850L1387,850Z" fill="#5fc566" stroke="#5fc566"/><path d="M1287,700L1387,850L1407,684Z" fill="#6ccc6a" stroke="#6ccc6a"/><path d="M1407,684L1387,850L1634,843Z" fill="#4bbc63" stroke="#4bbc63"/><path d="M1407,684L1634,843L1625,618Z" fill="#5ac567" stroke="#5ac567"/><path d="M1625,618L1634,843L1688,709Z" fill="#48bc63" stroke="#48bc63"/><path d="M1688,709L1634,843L1773,849Z" fill="#24aa5a" stroke="#24aa5a"/><path d="M1688,709L1773,849L1905,710Z" fill="#2aab5a" stroke="#2aab5a"/><path d="M1905,710L1773,849L1858,837Z" fill="#1b9f54" stroke="#1b9f54"/><path d="M1905,710L1858,837L1978,836Z" fill="#1c9a52" stroke="#1c9a52"/><path d="M1905,710L1978,836L1976,716Z" fill="#2b9f54" stroke="#2b9f54"/><path d="M1976,716L1978,836L2026,977Z" fill="#0b8b49" stroke="#0b8b49"/><path d="M-134,855L-116,1167L-28,1026Z" fill="#66432b" stroke="#66432b"/><path d="M-134,855L-28,1026L92,767Z" fill="#6a653c" stroke="#6a653c"/><path d="M92,767L-28,1026L104,1018Z" fill="#6f643c" stroke="#6f643c"/><path d="M92,767L104,1018L176,915Z" fill="#737443" stroke="#737443"/><path d="M92,767L176,915L201,812Z" fill="#84854b" stroke="#84854b"/><path d="M201,812L176,915L319,939Z" fill="#7a844a" stroke="#7a844a"/><path d="M201,812L319,939L360,799Z" fill="#839352" stroke="#839352"/><path d="M360,799L319,939L511,871Z" fill="#7e9e57" stroke="#7e9e57"/><path d="M511,871L319,939L513,952Z" fill="#7e9b55" stroke="#7e9b55"/><path d="M511,871L513,952L628,945Z" fill="#7fa75d" stroke="#7fa75d"/><path d="M511,871L628,945L710,788Z" fill="#80b768" stroke="#80b768"/><path d="M710,788L628,945L765,851Z" fill="#83c270" stroke="#83c270"/><path d="M765,851L628,945L795,991Z" fill="#7fb76b" stroke="#7fb76b"/><path d="M765,851L795,991L929,953Z" fill="#77ba6b" stroke="#77ba6b"/><path d="M765,851L929,953L973,880Z" fill="#72c36e" stroke="#72c36e"/><path d="M973,880L929,953L1157,959Z" fill="#66bc67" stroke="#66bc67"/><path d="M973,880L1157,959L1089,815Z" fill="#61c267" stroke="#61c267"/><path d="M1089,815L1157,959L1249,850Z" fill="#57bf62" stroke="#57bf62"/><path d="M1249,850L1157,959L1298,920Z" fill="#4fb55c" stroke="#4fb55c"/><path d="M1249,850L1298,920L1387,850Z" fill="#44b75e" stroke="#44b75e"/><path d="M1387,850L1298,920L1473,1029Z" fill="#3aa858" stroke="#3aa858"/><path d="M1387,850L1473,1029L1525,984Z" fill="#309f53" stroke="#309f53"/><path d="M1387,850L1525,984L1634,843Z" fill="#27a658" stroke="#27a658"/><path d="M1634,843L1525,984L1673,977Z" fill="#18974f" stroke="#18974f"/><path d="M1634,843L1673,977L1773,849Z" fill="#0b9951" stroke="#0b9951"/><path d="M1773,849L1673,977L1930,1033Z" fill="#008647" stroke="#008647"/><path d="M1773,849L1930,1033L1858,837Z" fill="#008a49" stroke="#008a49"/><path d="M1858,837L1930,1033L1978,836Z" fill="#008647" stroke="#008647"/><path d="M1978,836L1930,1033L2026,977Z" fill="#007840" stroke="#007840"/><path d="M-28,1026L-116,1167L54,1105Z" fill="#6a3b27" stroke="#6a3b27"/><path d="M-28,1026L54,1105L104,1018Z" fill="#6e4e30" stroke="#6e4e30"/><path d="M104,1018L54,1105L203,1115Z" fill="#735231" stroke="#735231"/><path d="M104,1018L203,1115L176,915Z" fill="#75633a" stroke="#75633a"/><path d="M176,915L203,1115L319,939Z" fill="#7a7140" stroke="#7a7140"/><path d="M319,939L203,1115L374,1155Z" fill="#7b6b3d" stroke="#7b6b3d"/><path d="M319,939L374,1155L513,952Z" fill="#7d8348" stroke="#7d8348"/><path d="M513,952L374,1155L536,1105Z" fill="#7f8248" stroke="#7f8248"/><path d="M513,952L536,1105L628,945Z" fill="#7f9956" stroke="#7f9956"/><path d="M628,945L536,1105L647,1105Z" fill="#7f9455" stroke="#7f9455"/><path d="M628,945L647,1105L795,991Z" fill="#7fa460" stroke="#7fa460"/><path d="M795,991L647,1105L864,1133Z" fill="#7b9d5d" stroke="#7b9d5d"/><path d="M795,991L864,1133L929,953Z" fill="#74a961" stroke="#74a961"/><path d="M929,953L864,1133L986,1130Z" fill="#6fa35d" stroke="#6fa35d"/><path d="M929,953L986,1130L1157,959Z" fill="#66ac5e" stroke="#66ac5e"/><path d="M1157,959L986,1130L1169,1086Z" fill="#5da054" stroke="#5da054"/><path d="M1157,959L1169,1086L1298,920Z" fill="#52a855" stroke="#52a855"/><path d="M1298,920L1169,1086L1303,1115Z" fill="#4c9b4f" stroke="#4c9b4f"/><path d="M1298,920L1303,1115L1473,1029Z" fill="#3e994f" stroke="#3e994f"/><path d="M1473,1029L1303,1115L1388,1179Z" fill="#3a8746" stroke="#3a8746"/><path d="M1473,1029L1388,1179L1580,1081Z" fill="#2d8345" stroke="#2d8345"/><path d="M1473,1029L1580,1081L1525,984Z" fill="#268c49" stroke="#268c49"/><path d="M1525,984L1580,1081L1673,977Z" fill="#1b8a49" stroke="#1b8a49"/><path d="M1673,977L1580,1081L1668,1118Z" fill="#147e42" stroke="#147e42"/><path d="M1673,977L1668,1118L1930,1033Z" fill="#01783f" stroke="#01783f"/><path d="M1930,1033L1668,1118L1868,1172Z" fill="#006736" stroke="#006736"/><path d="M1930,1033L1868,1172L2034,1075Z" fill="#006033" stroke="#006033"/><path d="M1930,1033L2034,1075L2026,977Z" fill="#006837" stroke="#006837"/><path d="M-116,1167L1388,1179L374,1155Z" fill="#7f7845" stroke="#7f7845"/><path d="M-116,1167L374,1155L203,1115Z" fill="#754a2d" stroke="#754a2d"/><path d="M-116,1167L203,1115L54,1105Z" fill="#6f4028" stroke="#6f4028"/><path d="M374,1155L1388,1179L864,1133Z" fill="#739255" stroke="#739255"/><path d="M374,1155L864,1133L647,1105Z" fill="#7f884f" stroke="#7f884f"/><path d="M374,1155L647,1105L536,1105Z" fill="#7f7e47" stroke="#7f7e47"/><path d="M864,1133L1388,1179L986,1130Z" fill="#60904e" stroke="#60904e"/><path d="M986,1130L1388,1179L1169,1086Z" fill="#558f48" stroke="#558f48"/><path d="M1169,1086L1388,1179L1303,1115Z" fill="#488a46" stroke="#488a46"/><path d="M1388,1179L1868,1172L1668,1118Z" fill="#136b39" stroke="#136b39"/><path d="M1388,1179L1668,1118L1580,1081Z" fill="#237940" stroke="#237940"/></g></svg>